<?xml version="1.0" standalone="no"?>
<!DOCTYPE svg PUBLIC "-//W3C//DTD SVG 20010904//EN"
 "http://www.w3.org/TR/2001/REC-SVG-20010904/DTD/svg10.dtd">
<svg version="1.0" xmlns="http://www.w3.org/2000/svg"
 width="392.000000pt" height="182.000000pt" viewBox="0 0 392.000000 182.000000"
 preserveAspectRatio="xMidYMid meet">

<g transform="translate(0.000000,182.000000) scale(0.100000,-0.100000)"
fill="#000000" stroke="none">
<path d="M0 1810 c0 -6 582 -11 1683 -12 l1682 -3 57 -27 c31 -14 74 -45 97
-68 38 -39 81 -129 81 -169 0 -13 15 -22 62 -35 175 -49 271 -227 213 -397
-14 -40 -14 -49 0 -88 20 -56 19 -154 -1 -207 -14 -38 -14 -45 0 -88 9 -26 16
-75 16 -110 0 -78 -43 -171 -100 -217 -33 -27 -38 -37 -44 -87 -13 -113 -80
-208 -181 -254 l-50 -23 -1757 -3 c-1147 -1 -1758 -6 -1758 -12 0 -7 678 -10
1960 -10 l1960 0 0 910 0 910 -1960 0 c-1285 0 -1960 -3 -1960 -10z"/>
<path d="M0 910 l0 -870 1743 0 c1155 0 1754 4 1779 10 100 28 189 130 203
231 4 28 5 52 2 55 -2 3 -32 -3 -66 -12 -44 -12 -65 -14 -72 -7 -8 8 2 13 33
18 190 31 297 212 233 393 -4 10 -23 -2 -60 -36 -57 -52 -123 -82 -182 -82
-49 0 -32 16 25 24 98 13 196 97 223 190 14 52 14 134 0 179 l-12 36 -35 -39
c-20 -22 -59 -50 -87 -64 -57 -27 -137 -43 -137 -28 0 5 20 12 45 15 175 24
289 228 218 388 -54 120 -139 170 -305 177 -120 5 -148 22 -38 22 80 0 82 2
53 86 -11 32 -34 66 -68 101 -91 90 67 83 -1827 83 l-1668 0 0 -870z"/>
</g>
</svg>
