<?xml version="1.0" standalone="no"?>
<!DOCTYPE svg PUBLIC "-//W3C//DTD SVG 20010904//EN"
 "http://www.w3.org/TR/2001/REC-SVG-20010904/DTD/svg10.dtd">
<svg version="1.0" xmlns="http://www.w3.org/2000/svg"
 width="392.000000pt" height="182.000000pt" viewBox="0 0 392.000000 182.000000"
 preserveAspectRatio="xMidYMid meet">

<g transform="translate(0.000000,182.000000) scale(0.100000,-0.100000)"
fill="#000000" stroke="none">
<path d="M0 910 l0 -910 1910 0 c1691 0 1910 2 1910 15 0 13 -187 15 -1622 15
l-1622 0 45 28 c122 78 174 218 130 349 -20 58 -20 63 -4 100 22 50 22 166 0
216 -15 36 -15 41 1 80 12 30 16 63 14 117 -4 99 -4 123 4 273 4 90 3 127 -5
127 -7 0 -11 -39 -11 -117 0 -136 -14 -178 -73 -230 -102 -90 -260 -62 -327
57 -25 45 -25 47 -25 295 l0 250 27 51 c15 28 48 70 73 92 88 78 -52 72 1767
72 1440 0 1628 2 1628 15 0 13 -219 15 -1910 15 l-1910 0 0 -910z m310 620 c0
-14 -7 -20 -22 -20 -20 0 -21 1 -3 20 10 11 20 20 22 20 1 0 3 -9 3 -20z m0
-245 c0 -228 4 -246 64 -313 35 -39 36 -40 14 -46 -43 -11 -124 -6 -174 11
-32 11 -66 34 -100 67 -114 115 -114 297 2 408 46 44 116 77 162 78 l32 0 0
-205z m-206 -294 c69 -70 183 -104 273 -82 37 10 61 10 108 0 80 -16 155 4
209 57 20 20 40 33 44 29 4 -4 7 -43 7 -88 -1 -94 -20 -141 -82 -203 -61 -62
-111 -78 -249 -82 -198 -6 -288 33 -351 157 -27 51 -33 74 -33 125 0 61 15
126 29 126 4 0 24 -18 45 -39z m-13 -286 c17 -19 58 -48 91 -65 60 -29 64 -30
208 -30 144 0 148 1 209 31 34 17 74 46 89 65 15 19 30 34 33 34 11 0 29 -78
29 -127 0 -110 -71 -219 -172 -264 -47 -21 -68 -23 -188 -23 -119 0 -141 2
-185 22 -106 49 -175 148 -175 256 0 52 17 136 27 136 2 0 17 -16 34 -35z
m650 -307 c17 -66 6 -157 -27 -218 -107 -196 -386 -199 -500 -5 -23 40 -48
141 -38 157 2 3 25 0 51 -8 28 -9 92 -14 163 -14 150 0 204 16 274 82 28 26
54 47 58 48 4 0 12 -19 19 -42z"/>
</g>
</svg>
